# xmcd
#
# Track frame offsets: 
#        150
#        18233
#        37600
#        56489
#        73772
#        97127
#        118497
#        148671
#        193091
#        228776
#        252469
#        279368
#        299057
#        329020
#
# Disc length: 4412 seconds
#
# Revision: 1
# Processed by: cddbd v1.5.2PL0 Copyright (c) Steve Scherf et al.
# Submitted via: ExactAudioCopy v0.95b4
#
DISCID=db113a0e
DTITLE=Hobo Blues Band - Senkifalva
DYEAR=2007
DGENRE=Blues
TTITLE0=A ripacsok bevonulása
TTITLE1=Üvöltõ vadállat
TTITLE2=Titkosügynök
TTITLE3=Meddig fúj az a szél
TTITLE4=Harangjáték
TTITLE5=Szabad a szó
TTITLE6=Szélcsend idején
TTITLE7=Túlélõ trallalla
TTITLE8=Gyémánt a harmaton
TTITLE9=Az a fekete madár
TTITLE10=Himalája
TTITLE11=Szakadék szélén
TTITLE12=Senkifalva
TTITLE13=Végbeszéd
EXTD=
EXTT0=
EXTT1=
EXTT2=
EXTT3=
EXTT4=
EXTT5=
EXTT6=
EXTT7=
EXTT8=
EXTT9=
EXTT10=
EXTT11=
EXTT12=
EXTT13=
PLAYORDER=
